# xmcd
#
# Track frame offsets: 
#        150
#        19908
#        38168
#        56135
#        78763
#        94953
#        116186
#        143572
#        157653
#        177725
#        195204
#        216285
#
# Disc length: 3097 seconds
#
# Revision: 0
# Processed by: cddbd v1.5.2PL0 Copyright (c) Steve Scherf et al.
# Submitted via: ExactAudioCopy v0.99pb4
#
DISCID=9e0c170c
DTITLE=Worse - Jausmu karusele
DYEAR=1997
DGENRE=Classic Rock
TTITLE0=Uz Jus
TTITLE1=Kosmarai
TTITLE2=Kelyje
TTITLE3=Jausmu karusele
TTITLE4=Patikek
TTITLE5=Pamesta viltis
TTITLE6=Nesibaigiantis kelias
TTITLE7=Man vistiek
TTITLE8=Lietus
TTITLE9=Svajone
TTITLE10=Netikra meile
TTITLE11=Viskas
EXTD=
EXTT0=
EXTT1=
EXTT2=
EXTT3=
EXTT4=
EXTT5=
EXTT6=
EXTT7=
EXTT8=
EXTT9=
EXTT10=
EXTT11=
PLAYORDER=
